<svg version="1" xmlns="http://www.w3.org/2000/svg" width="788" height="788" viewBox="0 0 591.000000 591.000000"><path d="M398 133.7c-5.8 2-16.2 8.9-22.5 15-10.7 10.2-23.6 28-32.1 44.2l-3.9 7.4-5.5.2c-25.4 1.1-54 13.9-67.6 30.4-6.8 8.1-12.8 19-14.3 25.6-.6 2.7-1.3 8.5-1.6 12.7-.4 6.2-.1 8 1.1 9.3 1 .9 1.4 2.6 1.1 4.1-.2 1.3-.2 2.2.1 1.9.8-.7 4.3 8.6 3.6 9.7-.3.4 0 .8.6.8.7 0 .9.7.6 1.6-.4 1-.2 1.3.6.8.7-.5.9-.2.5.9-.3.9-.1 1.8.6 2 1.5.6-2.5 2.2-13.2 5.3-5.8 1.7-10.8 2.4-16.7 2.4-4.5 0-8.6.4-8.9 1-1 1.6 2.7 5.8 7.1 8 2.3 1.2 6.5 2.1 9.7 2.3 3.2.1 5.7.5 5.7.9s-4.3 3.5-9.5 7c-7.9 5.2-9.4 6.6-8.9 8.3.4 1.1.8 2.2 1 2.4.1.2 6.7-1.7 14.5-4.3 7.9-2.5 14.4-4.4 14.6-4.2.2.1-1.2 3.6-3 7.7-3.3 7.2-4.9 12.9-5.1 17.9-.1 1.8.5 2.6 2.4 3 2.2.5 3-.3 7.8-7.5 5.4-8.1 11.3-14.9 14.4-16.6 1.4-.8 2.8.1 7 4.2 23.1 22.4 60 27.8 88.8 12.8 8.8-4.6 12-6.8 19.3-13.6 4.6-4.2 12.4-16.6 14.6-22.9 1.1-3.3 2.3-5.9 2.8-5.9.4 0 4.1.9 8 1.9 10.8 2.7 24.7 4.2 36.9 4 9.8-.1 24-1.1 28.3-1.9.9-.1 3.6-.6 6.1-1 21.8-3.5 46.5-12.4 62-22.3 13.6-8.7 26.2-23 28.5-32.5.6-2.3.2-3.2-2.6-5.7-4.9-4.4-17.1-9.8-25.6-11.5-10.9-2.1-15.1-2.5-28.6-2.5-15.1-.1-35.9 2.1-43.9 4.6-2.8.9-2.2-.1 4.3-6.3 16.5-15.7 27.9-37.1 27.9-52.4v-4.7l-4.7-1.7c-10-3.6-29.6-2.6-46.3 2.3-11.8 3.5-39.4 16.1-44.9 20.6-1.2.9-1.3.5-.7-2.4 1.5-7.2 1.7-8.3 2.4-15.9 1.5-15.8-.4-35.1-4.7-46.4-1.2-3.1-1.8-3.2-8.1-1zM141.2 315c-2.9 2.7-5.8 8.6-8.7 17.4-2.1 6.4-2.9 10-5 22.6-.3 1.9-.8 10.9-1.2 19.9l-.6 16.5-3.6 3.4c-12.2 11.5-28.6 20.2-42.6 22.7-1.6.2-4.1.7-5.5 1.1-1.4.3-7.7.5-14 .5-8.8.1-13-.4-18-2-17.9-5.6-28.8-17.6-29.8-32.5-1-16.9 10.6-30.8 27.9-33.3 6.8-1 14.1-.3 11.8 1.2-5.6 3.6-6.4 10.8-1.8 15.4 4.5 4.5 9.6 4.4 13.8-.4 5.6-6.4 3.2-13.1-6.4-18-5.1-2.6-6.9-3-14.1-2.9-7.4 0-8.9.4-15.7 3.7-9.4 4.7-17.5 13-20.8 21.4-2.8 7.4-3.4 20.5-1.3 28.7 7.1 27.2 26.9 41.9 54.9 41 21.9-.6 39.5-9.3 58.7-28.7 5.4-5.5 8.9-8.4 9.2-7.6.2.8 1 3.6 1.7 6.4 3.1 11.9 8.7 22.6 14.1 26.5 6.4 4.6 14.2 3.7 21.6-2.5l3-2.5 5.3 3.2c4.8 3 5.9 3.3 13.3 3.3 7.1 0 8.6-.4 12.2-2.7 11.6-7.5 17-21 13.9-34.6-4.4-18.7-22.5-28.2-38.3-20-4.3 2.2-5.1 2.4-6.8 1.1-1-.8-3.5-1.3-5.4-1.1l-3.5.3-.1 11c-.2 17.8-1.5 25.7-5.4 32-4.4 7-7.9 6.8-9.8-.8-.9-3.3-1-27.7-.3-40.7.1-1.8 12.6-18.5 20.5-27.5 5.9-6.7 13.7-13 19.1-15.4 6.6-2.9 16.9-2.1 25.5 2 5 2.5 5.2.3.5-3.8-5.4-4.6-13.7-8.4-19.7-8.8-10.5-.7-16.5 3.5-32.9 23.1-4.1 4.9-7.6 9.1-7.9 9.4-.3.3-1.5 1.8-2.7 3.3l-2.2 2.8.3-27c.2-14.8 0-27.5-.4-28-.4-.7-1.4-.4-2.8.9zm49.3 73c5.6 10.9 4.5 41.5-1.7 45.4-4.4 2.8-7.7-5.1-8.4-20.1-.9-20 5.1-35 10.1-25.3z"/><path d="M173.9 353.8c0 .4 0 3.8.1 7.7.1 5.6.6 7.4 2.2 9.2 2.2 2.4 8.1 3.2 9.3 1.3.4-.7 1.2-.7 2.5 0 3.1 1.7 6.5 1.1 8.8-1.3 1.9-2 2.2-3.5 2.2-10.1 0-7.4-.1-7.7-2.2-7.4-2.1.3-2.3.8-2.3 7.1-.1 4.8-.5 7.1-1.5 7.7-2.7 1.7-4-.9-4-8.2 0-6.6-.1-6.9-2.2-6.6-2.1.3-2.3.9-2.6 7.5-.2 5-.7 7.3-1.7 7.7-2.7 1-4-1.8-4-8.5.1-6.1-.1-6.5-2.2-6.7-1.3-.1-2.3.2-2.4.6zM278.5 363.5c-11.6 4.7-18.9 11.4-27.9 25.5-7.7 12.1-7.9 12.5-11.2 18.7-6.6 12.8-22.2 29.8-32.2 35.1-10.7 5.7-24.3 6-33.9.7-4.9-2.7-5.5-1.8-1.7 2 10.6 10.6 26.7 13.2 44.7 7.1 16.2-5.4 29.2-17.1 41.4-37.2 5.1-8.3 5.2-8.5 6.6-6.2 17.8 29 27.6 38.3 46 44 7.2 2.2 19.8 3 26.2 1.7 6.7-1.4 13.9-5.9 19-11.8l2-2.4-3.4 1.7c-6.6 3.4-11.7 4.7-18.8 4.7-12.4 0-22.3-6.2-33.6-21.1-5-6.5-11.1-11.6-18.5-15.2l-6.5-3.2 6.3-1.3c13.6-2.8 23.7-9.9 29.1-20.5 5.2-10.2 3.2-17.1-6.5-22-6.3-3.2-19.6-3.3-27.1-.3zM293 365c3.3 2.9 3 8.5-.9 16.3-5.7 11.6-14.8 19.8-23.4 21.1l-3.8.6 5.6-10.6c8.6-16.3 17.1-29.4 18.9-29.4.7 0 2.4.9 3.6 2zM398.9 368.2c-.2 8.4.1 10.2 2.4 12.5 2.2 2.5 5.6 2.9 8.9 1.2 1.4-.8 2.3-.8 3.1 0 1.8 1.8 6.2 1.2 8.4-1.2 2.4-2.4 2.6-3.6 2.4-12-.1-5.5-.2-5.8-2.3-5.5-2.1.3-2.3.8-2.4 6.9-.1 7.8-.7 9.3-3.5 7.9-1.6-.9-1.9-2.2-1.9-8 0-6.8-.1-7-2.5-7-2.3 0-2.4.3-2.7 7.2-.3 6.7-.5 7.3-2.5 7.6-1.5.2-2.3-.2-2.4-1.2-.1-.9-.3-3.9-.4-6.6-.4-7.1-.3-7-2.5-7-1.7 0-2 .7-2.1 5.2z"/><path d="M331.9 391.1c-8.7 1.3-16.8 7.1-20.6 14.8-2.5 5-2.4 16.3.1 21.3 8.1 16.4 31.4 19.9 44.5 6.7 17.5-17.4 1.1-46.6-24-42.8zm9.7 12.7c2.2 7.6 1.6 23.1-1.1 28.7-5.6 11.3-12.4-.5-11.2-19.4 1.2-18.2 8.2-23.6 12.3-9.3zM528 391c0 .4.9 3.2 1.9 6.2 5 14.7 5.8 27.1 2.6 42l-.6 2.6h12.3c6.8 0 12.6-.2 13-.4.4-.3.1-2.5-.7-5-1.9-6.2-1.8-25.1.2-31.7.8-2.9 2.3-6.1 3.4-7.2 1.9-1.9 1.9-1.9 3.9 0 4.4 4.5 6.4 25.3 3.7 38.1l-1.3 6.2 7.8-.1c7.3 0 8-.2 9.7-2.6 2.9-4.1 5.3-12.1 5.2-17.9-.1-16.3-10.6-29-25-30.5-5.3-.6-12.7 1.4-16.5 4.4-2.7 2.2-2.8 2.2-5.4.2-1.5-1.1-3.6-2.3-4.7-2.7-3.2-1.4-9.5-2.4-9.5-1.6zM383.4 393.4c-9.4 4.4-16.3 15.4-16.6 26.4-.2 7.1.8 11.4 3.8 17.4l2.4 4.8h16.9l-1.5-5.1c-3-9.9-1.2-33.8 2.8-38.6 3-3.7 6.4-.2 8.5 8.8 1.2 5.4.9 27-.5 30.8-.7 1.9-1 3.6-.8 3.8.5.5 24.5.7 25.1.2.2-.2-.2-3.2-1-6.7-2.2-10.9-.8-30.6 2.8-36.2 1.6-2.7 4.3-2.5 6.1.3 4.4 6.6 5.4 33.5 1.6 40.7-1 1.9-.7 2 5.7 2.1 3.7.1 7.5 0 8.3-.1 3.6-.4 7.9-10.1 8.4-18.7.9-14-7.7-27.4-19.8-31.3-5.8-1.9-14.5-.7-20.5 2.6-4.7 2.7-5.1 2.7-6.8 1.2-5.7-5.2-16.6-6.3-24.9-2.4zM477.4 392.6c-14.3 5.1-21.2 22.8-14.1 35.9 7.3 13.3 24 18 37.1 10.6 4-2.2 5.6-2.7 5.9-1.7.8 1.9 7 4.6 10.9 4.6 3.3 0 15.2-5 13.3-5.5-.5-.2-2.2-.6-3.6-.9-5.6-1.2-10.5-8.6-11.6-17.5-.3-2.5-.7-5.3-.9-6.1-.1-.8-.3-5.4-.3-10.3l-.1-8.7h-2.7c-1.6 0-3.9.6-5.3 1.3-2.1 1.1-3.3.9-8-1-6.4-2.6-14.4-2.9-20.6-.7zm13.8 7.6c1.9 3.7 2.2 5.9 2.3 15.8 0 15.5-2.9 23.3-8 21.4-6.1-2.4-7-32.5-1.2-40.2 1.9-2.5 4.6-1.3 6.9 3z"/></svg>